<mxfile host="app.diagrams.net" modified="2023-11-16T06:08:32.539Z" agent="Mozilla/5.0 (Macintosh; Intel Mac OS X 10_15_7) AppleWebKit/537.36 (KHTML, like Gecko) Chrome/119.0.0.0 Safari/537.36" version="22.1.2" etag="onLxAtWPbPn5FmsscP_s" type="github">
  <diagram name="第 1 页" id="T5enPagGDyysxPcJfKMC">
    <mxGraphModel>
      <root>
        <mxCell id="0" />
        <mxCell id="1" parent="0" />
      </root>
    </mxGraphModel>
  </diagram>
</mxfile>
